<?xml version="1.0" encoding="UTF-8" standalone="no"?>
<svg
   xmlns:dc="http://purl.org/dc/elements/1.1/"
   xmlns:cc="http://creativecommons.org/ns#"
   xmlns:rdf="http://www.w3.org/1999/02/22-rdf-syntax-ns#"
   xmlns:svg="http://www.w3.org/2000/svg"
   xmlns="http://www.w3.org/2000/svg"
   id="svg8"
   version="1.1"
   viewBox="0 0 200 200"
   height="200mm"
   width="200mm">
  <defs
     id="defs2" />
  <metadata
     id="metadata5">
    <rdf:RDF>
      <cc:Work
         rdf:about="">
        <dc:format>image/svg+xml</dc:format>
        <dc:type
           rdf:resource="http://purl.org/dc/dcmitype/StillImage" />
        <dc:title></dc:title>
      </cc:Work>
    </rdf:RDF>
  </metadata>
  <g
     transform="translate(0,-97)"
     id="layer1">
    <path
       transform="matrix(-0.96847143,-0.24912465,0.26883471,-0.96318633,0,0)"
       d="m -46.917282,-165.07707 a 41.649475,41.234322 0 0 1 -41.569597,41.23424 41.649475,41.234322 0 0 1 -41.729051,-41.07608 l 41.649173,-0.15816 z"
       id="path815"
       style="fill:#e94d4d;fill-opacity:1;stroke-width:0.12241051" />
    <path
       d="M 113.15916,136.65919 A 39.928562,39.314846 0 0 1 73.230649,175.97404 39.928562,39.314846 0 0 1 33.302036,136.6593 39.928562,39.314846 0 0 1 73.230446,97.344349 39.928562,39.314846 0 0 1 113.15916,136.65899 l -39.928562,2e-4 z"
       id="path815-6"
       style="fill:#e94dca;fill-opacity:1;stroke-width:0.11703198" />
    <path
       d="M 169.53426,142.3383 A 38.544014,37.951569 0 0 1 130.9903,180.28987 38.544014,37.951569 0 0 1 92.446236,142.3384 38.544014,37.951569 0 0 1 130.9901,104.38673 a 38.544014,37.951569 0 0 1 38.54416,37.95138 l -38.54401,1.9e-4 z"
       id="path815-7"
       style="fill:#3e944d;fill-opacity:1;stroke-width:0.11297382" />
    <path
       d="m 199.31765,182.49759 a 39.959995,39.345787 0 0 1 -39.95995,39.34579 39.959995,39.345787 0 0 1 -39.96004,-39.34569 39.959995,39.345787 0 0 1 39.95984,-39.34589 39.959995,39.345787 0 0 1 39.96015,39.34559 l -39.96,2e-4 z"
       id="path815-5"
       style="fill:#ff2400;fill-opacity:1;stroke-width:0.11712413" />
    <path
       d="m 187.6269,233.69879 a 40.903984,40.275269 0 0 1 -40.90393,40.27527 40.903984,40.275269 0 0 1 -40.90404,-40.27517 40.903984,40.275269 0 0 1 40.90383,-40.27537 40.903984,40.275269 0 0 1 40.90414,40.27507 l -40.90398,2e-4 z"
       id="path815-3"
       style="fill:#454d65;fill-opacity:1;stroke-width:0.11989099" />
    <path
       d="m 136.64332,257.60904 a 39.959995,39.345787 0 0 1 -39.959942,39.34579 39.959995,39.345787 0 0 1 -39.960047,-39.34569 39.959995,39.345787 0 0 1 39.959843,-39.34589 39.959995,39.345787 0 0 1 39.960146,39.34559 l -39.959993,2e-4 z"
       id="path815-56"
       style="fill:#0bcd4d;fill-opacity:1;stroke-width:0.11712413" />
    <path
       d="M 90.730747,234.47575 A 40.746655,40.120354 0 0 1 49.984145,274.59611 40.746655,40.120354 0 0 1 9.2374382,234.47586 40.746655,40.120354 0 0 1 49.983937,194.3554 a 40.746655,40.120354 0 0 1 40.74681,40.12015 l -40.746654,2e-4 z"
       id="path815-2"
       style="fill:#3b17a3;fill-opacity:1;stroke-width:0.11942983" />
    <path
       transform="matrix(0.96847143,0.24912465,-0.26883471,0.96318633,0,0)"
       d="m 130.43293,163.86614 a 41.649479,41.234322 0 0 1 -20.72051,35.8372 41.649479,41.234322 0 0 1 -41.708854,0.0849 41.649479,41.234322 0 0 1 -20.869167,-35.75255 l 41.649476,0.0172 z"
       id="path815-9"
       style="fill:#e94d4d;fill-opacity:1;stroke-width:0.12241051" />
  </g>
</svg>
