<?xml version="1.0" encoding="UTF-8" standalone="no"?>
<!-- Created with Inkscape (http://www.inkscape.org/) -->

<svg
   xmlns:dc="http://purl.org/dc/elements/1.1/"
   xmlns:cc="http://creativecommons.org/ns#"
   xmlns:rdf="http://www.w3.org/1999/02/22-rdf-syntax-ns#"
   xmlns:svg="http://www.w3.org/2000/svg"
   xmlns="http://www.w3.org/2000/svg"
   xmlns:sodipodi="http://sodipodi.sourceforge.net/DTD/sodipodi-0.dtd"
   xmlns:inkscape="http://www.inkscape.org/namespaces/inkscape"
   width="1920mm"
   height="1080mm"
   viewBox="0 0 1920 1080"
   version="1.1"
   id="svg8"
   sodipodi:docname="back+plasma+white.svg"
   inkscape:version="0.92.2 2405546, 2018-03-11">
  <defs
     id="defs2" />
  <sodipodi:namedview
     id="base"
     pagecolor="#ffffff"
     bordercolor="#666666"
     borderopacity="1.0"
     inkscape:pageopacity="0.0"
     inkscape:pageshadow="2"
     inkscape:zoom="0.12374369"
     inkscape:cx="1996.0926"
     inkscape:cy="2127.412"
     inkscape:document-units="mm"
     inkscape:current-layer="layer1"
     showgrid="true"
     inkscape:pagecheckerboard="true"
     height="1080mm"
     showguides="false"
     inkscape:guide-bbox="true"
     inkscape:window-width="1920"
     inkscape:window-height="1050"
     inkscape:window-x="0"
     inkscape:window-y="0"
     inkscape:window-maximized="1"
     gridtolerance="6"
     guidetolerance="11">
    <sodipodi:guide
       position="887.33484,1357.7292"
       orientation="0,1"
       id="guide819"
       inkscape:locked="false" />
    <inkscape:grid
       type="xygrid"
       id="grid825"
       spacingx="479.98063"
       spacingy="269.45167" />
  </sodipodi:namedview>
  <metadata
     id="metadata5">
    <rdf:RDF>
      <cc:Work
         rdf:about="">
        <dc:format>image/svg+xml</dc:format>
        <dc:type
           rdf:resource="http://purl.org/dc/dcmitype/StillImage" />
        <dc:title />
      </cc:Work>
    </rdf:RDF>
  </metadata>
  <g
     inkscape:label="Layer 1"
     inkscape:groupmode="layer"
     id="layer1"
     transform="translate(0,783)">
    <g
       transform="matrix(0.52916667,0,0,0.52916667,-1664.6865,-1338.5435)"
       id="start-here-kde">
      <path
         inkscape:connector-curvature="0"
         style="color:#4d4d4d;opacity:1;fill:#eff0f1;fill-opacity:1;stroke:none"
         d="m 428.71429,528.79074 c -0.554,0 -1,0.446 -1,1 0,0.554 0.446,1 1,1 0.554,0 1,-0.446 1,-1 0,-0.554 -0.446,-1 -1,-1 z m 7,0 -2,2 3,3 -3,3 2,2 3,-3 2,-2 z m -9.5,6 c -0.831,0 -1.5,0.669 -1.5,1.5 0,0.831 0.669,1.5 1.5,1.5 0.831,0 1.5,-0.669 1.5,-1.5 0,-0.831 -0.669,-1.5 -1.5,-1.5 z m 4.5,6 c -1.108,0 -2,0.892 -2,2 0,1.108 0.892,2 2,2 1.108,0 2,-0.892 2,-2 0,-1.108 -0.892,-2 -2,-2 z"
         id="path3392"
         class="ColorScheme-Text" />
    </g>
    <g
       id="g1524"
       style="fill:#ffffff;fill-opacity:1"
       transform="matrix(1.0026142,0,0,1.0031567,-5.0193631,-0.55957219)">
      <path
         style="fill:#ffffff;fill-opacity:1;stroke-width:0.99821216"
         d="M 16.162109,8.9550781 V 4081.8906 H 7256.9355 V 8.9550781 Z M 3448.4512,1329.041 c 24.376,0 44,19.624 44,44 0,24.376 -19.624,44 -44,44 -24.376,0 -44,-19.624 -44,-44 0,-24.376 19.624,-44 44,-44 z m 308,0 220.0019,220 -88,88.002 -132.0019,132 -88,-88 132.0019,-132.002 -132.0019,-132 z m -418,264 c 36.564,0 66,29.4379 66,66.002 0,36.564 -29.436,66 -66,66 -36.5641,0 -66,-29.436 -66,-66 0,-36.5641 29.4359,-66.002 66,-66.002 z m 198,264.002 c 48.752,0 88,39.2479 88,88 0,48.752 -39.248,88 -88,88 -48.7521,0 -88,-39.248 -88,-88 0,-48.7521 39.2479,-88 88,-88 z"
         transform="matrix(0.26458333,0,0,0.26458333,0,-783)"
         id="rect815"
         inkscape:connector-curvature="0" />
    </g>
    <path
       style="fill:#242727;fill-opacity:1;stroke-width:1.42857134"
       d=""
       id="path1444"
       inkscape:connector-curvature="0"
       transform="matrix(0.26458333,0,0,0.26458333,0,-783)" />
    <rect
       style="fill:#242727;fill-opacity:1;stroke-width:0.26458332"
       id="rect1448"
       width="2.4641242e-10"
       height="269.45166"
       x="959.96124"
       y="-511.35501" />
    <g
       transform="matrix(11.641677,0,0,11.641677,-4078.5504,-6587.3687)"
       id="start-here-kde-3" />
  </g>
</svg>
